HIERARCHY
ROOT Hips
{
	OFFSET 0.00000 0.00000 0.00000
	CHANNELS 6 Xposition Yposition Zposition Zrotation Yrotation Xrotation 
	JOINT LHipJoint
	{
		OFFSET 0 0 0
		CHANNELS 3 Zrotation Yrotation Xrotation
		JOINT LeftUpLeg
		{
			OFFSET 1.73240 -1.89999 0.57994
			CHANNELS 3 Zrotation Yrotation Xrotation
			JOINT LeftLeg
			{
				OFFSET 2.43106 -6.67930 0.00000
				CHANNELS 3 Zrotation Yrotation Xrotation
				JOINT LeftFoot
				{
					OFFSET 2.78854 -7.66147 0.00000
					CHANNELS 3 Zrotation Yrotation Xrotation
					JOINT LeftToeBase
					{
						OFFSET 0.17314 -0.47571 2.01064
						CHANNELS 3 Zrotation Yrotation Xrotation
						End Site
						{
							OFFSET 0.00000 -0.00000 1.04147
						}
					}
				}
			}
		}
	}
	JOINT RHipJoint
	{
		OFFSET 0 0 0
		CHANNELS 3 Zrotation Yrotation Xrotation
		JOINT RightUpLeg
		{
			OFFSET -1.57078 -1.89998 0.57994
			CHANNELS 3 Zrotation Yrotation Xrotation
			JOINT RightLeg
			{
				OFFSET -2.50166 -6.87326 0.00000
				CHANNELS 3 Zrotation Yrotation Xrotation
				JOINT RightFoot
				{
					OFFSET -2.77304 -7.61886 0.00000
					CHANNELS 3 Zrotation Yrotation Xrotation
					JOINT RightToeBase
					{
						OFFSET -0.23513 -0.64602 2.11039
						CHANNELS 3 Zrotation Yrotation Xrotation
						End Site
						{
							OFFSET -0.00000 -0.00000 1.10597
						}
					}
				}
			}
		}
	}
	JOINT LowerBack
	{
		OFFSET 0 0 0
		CHANNELS 3 Zrotation Yrotation Xrotation
		JOINT Spine
		{
			OFFSET -0.00908 2.00015 -0.35323
			CHANNELS 3 Zrotation Yrotation Xrotation
			JOINT Spine1
			{
				OFFSET 0.05647 2.02258 0.04270
				CHANNELS 3 Zrotation Yrotation Xrotation
				JOINT Neck
				{
					OFFSET 0 0 0
					CHANNELS 3 Zrotation Yrotation Xrotation
					JOINT Neck1
					{
						OFFSET -0.02074 1.73711 0.13117
						CHANNELS 3 Zrotation Yrotation Xrotation
						JOINT Head
						{
							OFFSET -0.02359 1.73615 -0.24320
							CHANNELS 3 Zrotation Yrotation Xrotation
							End Site
							{
								OFFSET -0.00579 1.75982 -0.09688
							}
						}
					}
				}
				JOINT LeftShoulder
				{
					OFFSET 0 0 0
					CHANNELS 3 Zrotation Yrotation Xrotation
					JOINT LeftArm
					{
						OFFSET 3.20537 1.11432 -0.27680
						CHANNELS 3 Zrotation Yrotation Xrotation
						JOINT LeftForeArm
						{
							OFFSET 5.05923 -0.00000 -0.00000
							CHANNELS 3 Zrotation Yrotation Xrotation
							JOINT LeftHand
							{
								OFFSET 3.51996 -0.00000 0.00000
								CHANNELS 3 Zrotation Yrotation Xrotation
								JOINT LeftFingerBase
								{
									OFFSET 0 0 0
									CHANNELS 3 Zrotation Yrotation Xrotation
									JOINT LeftHandIndex1
									{
										OFFSET 0.65238 -0.00000 0.00000
										CHANNELS 3 Zrotation Yrotation Xrotation
										End Site
										{
											OFFSET 0.52596 -0.00000 0.00000
										}
									}
								}
								JOINT LThumb
								{
									OFFSET 0 0 0
									CHANNELS 3 Zrotation Yrotation Xrotation
									End Site
									{
										OFFSET 0.53399 -0.00000 0.53399
									}
								}
							}
						}
					}
				}
				JOINT RightShoulder
				{
					OFFSET 0 0 0
					CHANNELS 3 Zrotation Yrotation Xrotation
					JOINT RightArm
					{
						OFFSET -2.96983 1.42602 -0.37449
						CHANNELS 3 Zrotation Yrotation Xrotation
						JOINT RightForeArm
						{
							OFFSET -5.40867 -0.00000 0.00000
							CHANNELS 3 Zrotation Yrotation Xrotation
							JOINT RightHand
							{
								OFFSET -3.12964 -0.00000 0.00000
								CHANNELS 3 Zrotation Yrotation Xrotation
								JOINT RightFingerBase
								{
									OFFSET 0 0 0
									CHANNELS 3 Zrotation Yrotation Xrotation
									JOINT RightHandIndex1
									{
										OFFSET -0.83271 -0.00000 0.00000
										CHANNELS 3 Zrotation Yrotation Xrotation
										End Site
										{
											OFFSET -0.67135 -0.00000 0.00000
										}
									}
								}
								JOINT RThumb
								{
									OFFSET 0 0 0
									CHANNELS 3 Zrotation Yrotation Xrotation
									End Site
									{
										OFFSET -0.68160 -0.00000 0.68160
									}
								}
							}
						}
					}
				}
			}
		}
	}
}
MOTION
Frames: 14
Frame Time: 0.0060241
0.00 0.00 0.00 -338.8620 -85.9590 -17.9346 0.0000 0.0000 0.0000 -5.7417 -7.9475 -26.2742 8.0098 16.1265 52.5980 1.3048 -10.1341 -20.5860 4.0246 -12.1931 -36.4186 0.0000 0.0000 0.0000 -6.8737 5.1910 -26.9618 -8.9152 -16.7529 55.7965 1.8736 -26.9548 -25.0071 -2.5315 -9.8949 28.6370 -0.4696 -0.6440 37.9236 2.2885 -1.4482 5.9164 3.4080 -0.9472 -12.0734 -8.3959 -3.4262 -12.8414 11.8706 -6.2118 22.5476 4.8095 -2.4767 9.8863 0.0000 -0.0000 0.0000 -88.3156 -28.4788 48.9838 21.5853 -32.5051 -6.3615 -0.0000 -0.0000 18.0320 -16.0789 46.2873 168.2313 -7.1250 0.0000 -0.0000 10.8576 -13.8784 -171.9143 0.0000 -0.0000 0.0000 86.9933 11.2591 32.6395 -41.8454 49.1260 -19.8235 0.0000 -0.0000 -6.4381 -30.1164 10.7742 -6.1888 7.1250 -0.0000 -0.0000 -2.1252 -17.5781 -1.3851
0.00 0.00 0.00 -348.0430 -85.5260 -7.7766 0.0000 0.0000 0.0000 0.1362 -12.2703 -23.8518 6.6532 15.0328 47.5502 1.3501 -3.3976 -21.1138 4.8539 -13.2174 -40.1879 0.0000 0.0000 0.0000 -11.0601 11.0910 -19.9565 -5.4738 -13.8983 42.8314 4.5451 -34.6233 -12.5836 -1.6640 -8.1281 23.1039 -0.6764 -0.9142 37.9662 3.5358 -1.6351 5.3635 4.9803 -0.9793 -12.6977 -6.0690 -3.5459 -12.2939 7.9973 -5.7505 20.9577 3.0678 -2.4645 8.9888 -0.0000 -0.0000 0.0000 -87.5151 -28.7712 54.7368 22.0632 -33.0484 -6.6203 -0.0000 -0.0000 26.7551 1.1241 49.8366 -179.1409 -7.1250 0.0000 -0.0000 18.8537 -14.3055 -165.5715 -0.0000 -0.0000 0.0000 87.8732 17.6152 31.7436 -30.8605 41.6197 -11.9771 0.0000 -0.0000 -2.8816 -25.4032 11.3955 -5.3604 7.1250 -0.0000 -0.0000 1.2145 -17.4032 0.7958
0.00 0.00 0.00 -514.7220 -71.6375 158.6630 0.0000 0.0000 0.0000 -9.6189 -5.1446 -39.6399 15.0341 19.3982 75.3393 1.0721 -6.7273 -18.4836 0.2783 -3.3928 -9.3744 0.0000 0.0000 0.0000 22.9934 -17.5439 -51.4883 -15.1875 -19.4354 75.8009 0.4340 12.6878 10.2289 -0.0164 0.8256 -2.2692 1.2555 1.9893 35.7680 5.1044 2.5298 6.5779 3.8677 0.6625 -10.9412 -2.7142 -2.1669 -12.4678 2.4373 -2.9325 15.1100 0.9488 -1.3924 6.7375 -0.0000 0.0000 0.0000 -88.9039 8.4053 17.6228 29.4095 -40.3818 -11.0250 -0.0000 0.0000 -3.5327 -29.3818 45.0928 158.2588 -7.1250 0.0000 -0.0000 4.3817 -11.2098 -176.5433 -0.0000 0.0000 0.0000 81.5135 17.5817 12.0585 -68.7712 58.2267 -41.7248 0.0000 -0.0000 -18.1971 -2.4014 2.5017 -0.1049 7.1250 -0.0000 -0.0000 18.3391 -27.3041 8.2840
0.00 0.00 0.00 -508.7350 -69.5471 151.4630 0.0000 0.0000 0.0000 -12.6226 -5.8906 -39.2914 13.0228 18.7904 69.1965 0.4424 -16.2075 -15.4812 0.4169 -4.1444 -11.4832 0.0000 0.0000 0.0000 20.8551 -15.6196 -48.8518 -15.8045 -19.5726 77.6486 -0.0363 2.9362 5.8286 -0.0120 0.7071 -1.9431 1.4566 2.2061 35.9507 6.7196 2.8774 7.1655 5.3708 0.7355 -10.4918 -2.0882 -2.1037 -11.3046 2.8547 -3.0450 14.3585 0.9816 -1.3933 6.2962 0.0000 -0.0000 0.0000 -90.4302 10.0690 17.4776 25.1909 -36.3984 -8.4029 -0.0000 0.0000 -0.5958 -20.9256 42.5732 165.4962 -7.1250 0.0000 -0.0000 8.0202 -16.1528 -174.4726 0.0000 -0.0000 0.0000 79.2784 14.5730 9.6867 -91.2547 59.9941 -61.0865 0.0000 -0.0000 -16.0057 -2.3964 1.4292 -0.0598 7.1250 -0.0000 -0.0000 18.5208 -28.3224 7.9016
0.00 0.00 0.00 -505.8230 -65.3175 146.5530 0.0000 0.0000 0.0000 -12.9673 -5.0812 -38.8178 12.8078 18.7117 68.5276 0.8413 -1.8928 -16.7940 2.5200 -9.8741 -28.5701 0.0000 0.0000 0.0000 12.0102 -2.6207 -39.0581 -12.6712 -18.6602 68.1010 0.4880 -15.5148 -15.8829 -0.5400 -4.7081 13.0778 1.4757 1.7171 36.9016 7.5554 2.1667 7.5574 6.5755 0.3023 -10.3964 -2.2373 -1.1100 -10.4697 3.6721 -1.8075 13.7591 1.3760 -0.7571 5.9388 0.0000 -0.0000 0.0000 -90.7587 13.9771 16.3404 23.9421 -35.1029 -7.6732 -0.0000 0.0000 -4.4787 -16.7887 42.8281 168.4095 -7.1250 0.0000 -0.0000 10.1841 -16.9973 -173.1276 0.0000 -0.0000 0.0000 76.8030 12.6110 11.9499 -118.7178 56.6420 -84.5900 0.0000 -0.0000 -8.6189 -2.2603 0.4813 -0.0190 7.1250 -0.0000 -0.0000 18.7884 -29.2181 7.6033
0.00 0.00 0.00 -505.7290 -63.8506 144.8950 0.0000 0.0000 0.0000 -4.6077 -11.0522 -34.5206 14.4472 19.2441 73.5658 0.6635 -16.2193 -17.2807 2.1534 9.1785 26.3552 0.0000 0.0000 0.0000 5.4079 5.7040 -28.7209 -7.1877 -15.4879 49.5807 1.3835 -21.9777 -17.5536 -1.9163 -8.6895 24.8289 1.8289 1.2881 38.2962 7.0672 1.7463 7.2376 6.0857 0.0828 -11.0295 0.7367 -0.6842 -9.4651 3.0665 -1.6300 13.4030 0.7121 -0.5893 5.6255 0.0000 -0.0000 0.0000 -87.9019 15.8077 18.7866 23.0262 -34.1174 -7.1530 -0.0000 0.0000 -7.6700 -20.9115 47.2729 164.3215 -7.1250 0.0000 -0.0000 8.7160 -11.6726 -173.1459 0.0000 -0.0000 0.0000 75.2319 13.5141 13.8701 -125.2221 54.7497 -89.9654 0.0000 0.0000 2.1896 -1.4525 -3.3916 0.0859 7.1250 -0.0000 -0.0000 20.1827 -32.8423 6.3560
0.00 0.00 0.00 -502.7940 -67.0451 143.7970 0.0000 0.0000 0.0000 0.4941 -10.1697 -38.0215 15.8075 19.5733 77.6577 1.7154 -14.5641 -24.1304 0.0247 1.0155 2.7915 0.0000 0.0000 0.0000 -1.8506 14.6431 -21.5137 -3.5504 -11.5368 34.1123 2.6316 -27.3713 -8.3129 -1.3259 -7.2921 20.5837 1.0732 0.8685 37.5124 7.2611 1.2503 6.2261 6.8967 0.0226 -12.0311 -1.9193 -1.5898 -11.8057 5.5444 -2.8743 14.6902 1.8238 -1.0935 6.5236 0.0000 -0.0000 0.0000 -83.9483 10.3824 22.0279 18.8228 -29.1978 -4.9441 -0.0000 0.0000 -3.9483 -1.9457 43.0795 178.6708 -7.1250 0.0000 -0.0000 17.9996 -20.1021 -168.7199 0.0000 -0.0000 0.0000 76.9950 11.4816 12.1513 -122.7510 55.5312 -87.9377 0.0000 0.0000 8.2121 -9.2251 -3.6296 0.5891 7.1250 -0.0000 -0.0000 14.1271 -33.4024 4.1240
0.00 0.00 0.00 -484.9380 -70.2331 127.2500 0.0000 0.0000 0.0000 15.2843 -16.7211 -44.8869 18.8707 19.9694 86.6966 1.7724 -5.6691 -23.9928 3.8484 -11.9559 -35.5761 0.0000 0.0000 0.0000 1.4505 18.4964 -16.9405 -4.1358 -12.3390 36.9420 -0.1983 -3.5154 -10.4618 -0.2782 -3.3927 9.3739 4.5086 -0.5485 40.8146 9.6211 1.0661 6.5560 7.9105 -0.3275 -12.6457 4.3724 -0.1042 -11.6430 -1.7406 -0.6676 9.1851 -1.2963 -0.2860 4.6361 -0.0000 -0.0000 0.0000 -83.2230 3.6423 20.9399 28.8152 -39.8560 -10.6421 -0.0000 0.0000 -7.9520 -33.6316 48.3636 153.5658 -7.1250 0.0000 -0.0000 3.4174 -6.6690 -176.9971 -0.0000 -0.0000 0.0000 83.4371 18.1829 9.7079 -92.1628 59.9823 -61.8730 0.0000 0.0000 3.8030 -22.8889 0.9533 -0.4025 7.1250 -0.0000 -0.0000 2.8707 -28.9400 1.1244
0.00 0.00 0.00 -485.7810 -70.7491 128.1750 0.0000 0.0000 0.0000 17.5584 -17.1652 -46.8721 19.5144 19.9943 88.5800 1.2638 -8.2175 -20.1143 1.5447 -7.8453 -22.2452 0.0000 0.0000 0.0000 2.7669 14.5129 -21.2507 -5.1621 -13.5640 41.5183 -0.4566 -0.9863 -13.1602 -0.0002 -0.0982 0.2697 5.1548 -0.7426 42.4409 9.2186 1.1400 6.5590 7.1364 -0.3539 -13.1103 4.2775 0.3784 -12.1783 -2.0307 0.0086 8.9748 -1.3218 0.0216 4.6800 0.0000 -0.0000 0.0000 -82.9328 2.5218 21.5534 33.2736 -43.5393 -13.6102 -0.0000 0.0000 -10.8922 6.1232 37.2290 -176.2865 -7.1250 0.0000 -0.0000 23.5999 -27.1640 -168.8725 0.0000 -0.0000 0.0000 84.1539 21.1202 12.0494 -68.9069 58.2503 -41.8402 0.0000 0.0000 4.3951 -24.5444 3.9572 -1.8051 7.1250 -0.0000 -0.0000 1.5777 -25.6306 0.7403
0.00 0.00 0.00 -499.3940 -69.9569 143.0580 0.0000 0.0000 0.0000 15.9097 -16.0147 -46.4869 19.1181 19.9813 87.4208 0.8856 0.7346 -18.0624 0.9480 -6.2007 -17.3679 0.0000 0.0000 0.0000 1.8208 16.1605 -29.5416 -7.0815 -15.4001 49.1818 -0.5463 3.3004 -13.2257 -0.0104 -0.6576 1.8070 6.3813 0.5208 45.1690 9.4120 3.0980 7.4684 5.8475 0.2869 -12.9395 -0.6280 0.3601 -14.3646 -3.3808 1.0037 9.1737 -0.8732 0.2174 5.1197 -0.0000 -0.0000 0.0000 -87.6859 -2.7684 25.5123 38.8276 -47.3597 -17.5719 -0.0000 0.0000 -10.0456 -28.6847 40.7615 160.3416 -7.1250 0.0000 -0.0000 3.7181 -15.6607 -177.4181 -0.0000 -0.0000 0.0000 80.2184 41.6383 3.6522 -13.3523 21.8012 -2.5826 0.0000 0.0000 4.6173 -19.8173 4.5287 -1.6298 7.1250 -0.0000 -0.0000 5.1351 -25.1657 2.4735
0.00 0.00 0.00 -493.5590 -79.3084 141.8530 0.0000 0.0000 0.0000 4.4530 -4.2766 -45.3471 12.7962 18.7073 68.4913 1.2843 1.0071 -21.8052 1.4854 -7.6999 -21.8062 0.0000 0.0000 0.0000 -0.8122 18.0090 -20.2730 -4.1284 -12.3293 36.9071 -1.2852 -3.1205 -22.7426 -2.2857 -9.4375 27.1737 5.2529 1.0777 42.2371 9.9593 3.2993 7.9229 6.8486 0.5806 -11.7137 3.3461 3.9001 -20.4532 -12.1216 5.3903 4.3534 -3.8481 1.7510 5.0652 0.0000 0.0000 0.0000 -84.9383 6.7403 23.8378 41.0274 -48.6670 -19.2072 -0.0000 0.0000 -15.4486 80.0036 -15.7376 123.0180 -7.1250 0.0000 -0.0000 43.1902 8.8241 -105.1472 0.0000 0.0000 0.0000 78.2150 15.8453 -3.7550 -122.0054 55.7515 -87.3221 0.0000 -0.0000 -21.9936 -5.1602 1.0299 -0.0930 7.1250 -0.0000 -0.0000 16.5184 -28.7576 6.7945
0.00 0.00 0.00 -483.2670 -81.3033 131.8630 0.0000 0.0000 0.0000 2.2353 -2.2417 -47.3198 12.9690 18.7709 69.0291 1.5924 -1.3349 -23.4784 1.4498 -7.6112 -21.5391 0.0000 0.0000 0.0000 -1.5879 17.7279 -19.1557 -4.2518 -12.4881 37.4812 -1.6102 -3.8199 -25.6018 -2.9459 -10.6070 30.9655 3.8943 0.8799 41.6785 8.9311 2.4646 7.8271 6.7689 0.3243 -11.5759 3.5811 4.9112 -19.5984 -11.8389 6.4940 2.5434 -3.6816 2.4072 4.4478 -0.0000 -0.0000 0.0000 -84.6314 8.7200 18.8777 42.4164 -49.4381 -20.2564 -0.0000 0.0000 -19.4092 86.9004 -16.9572 100.5182 -7.1250 0.0000 -0.0000 49.1556 27.0222 -86.4747 -0.0000 -0.0000 0.0000 76.9354 16.0495 0.2849 -137.8102 49.3151 -99.9156 0.0000 -0.0000 -15.1112 -6.2758 1.6288 -0.1791 7.1250 -0.0000 -0.0000 15.5892 -28.1966 6.6001
0.00 0.00 0.00 -436.2560 -81.5314 86.3477 0.0000 0.0000 0.0000 -0.1267 -8.5470 -47.4688 12.3941 18.5523 67.2326 1.8389 -4.3936 -24.6215 0.9418 -6.1812 -17.3110 0.0000 0.0000 0.0000 -1.1298 17.5733 -16.9087 -4.1867 -12.4048 37.1796 -1.8433 -13.3124 -33.3530 -7.0679 -15.3888 49.1307 3.5965 3.1072 40.9856 6.4962 5.0005 7.7755 3.0874 1.5998 -11.3555 0.9946 3.2722 -16.7791 -8.7155 4.0524 -3.7803 -2.7787 1.6010 1.9267 -0.0000 -0.0000 0.0000 -79.5599 2.0057 16.2692 40.6899 -48.4733 -18.9541 -0.0000 -0.0000 1.7709 102.7256 47.1802 -72.8874 -7.1250 0.0000 -0.0000 40.8675 -14.4413 -137.1872 -0.0000 -0.0000 0.0000 77.1745 26.8931 28.4189 -135.5666 50.4879 -98.1992 0.0000 0.0000 22.2530 -15.4203 3.3568 -0.9253 7.1250 -0.0000 -0.0000 8.5012 -26.4783 3.8590
0.00 0.00 0.00 -418.8120 -80.3264 68.9022 0.0000 0.0000 0.0000 -0.8110 -11.2317 -47.1101 12.2735 18.5039 66.8531 1.8662 -4.6117 -24.7792 0.9211 -6.1148 -17.1178 0.0000 0.0000 0.0000 -0.2800 16.6608 -18.7087 -5.5883 -14.0171 43.3061 -1.8686 -11.3109 -31.9848 -8.4065 -16.4102 54.0139 2.2983 4.9119 41.3154 6.3683 6.7337 7.8898 2.8348 2.4220 -11.5327 -1.0823 2.1291 -16.3060 -7.4668 2.8343 -4.2613 -2.0586 1.0823 1.5304 -0.0000 -0.0000 0.0000 -85.7243 -2.2555 16.2197 44.0602 -50.2997 -21.5132 -0.0000 -0.0000 20.1503 105.3110 61.4314 -72.6862 -7.1250 0.0000 -0.0000 146.4422 0.6582 41.1135 -0.0000 -0.0000 0.0000 80.9340 32.9110 30.8899 -103.0346 59.3482 -71.2635 0.0000 0.0000 26.8367 -18.2178 4.4332 -1.4573 7.1250 -0.0000 -0.0000 6.3389 -25.3102 3.0380
